<mxfile host="46537c22-6ada-4834-9e1e-d12efbd83f50" modified="2020-07-21T04:31:12.130Z" agent="5.0 (X11; Linux x86_64) AppleWebKit/537.36 (KHTML, like Gecko) Code/1.47.1 Chrome/78.0.3904.130 Electron/7.3.2 Safari/537.36" etag="ecfQ3Ya6LdROwd8VH0ed" version="13.1.3">
    <diagram id="6hGFLwfOUW9BJ-s0fimq" name="Page-1">
        <mxGraphModel dx="670" dy="296" grid="1" gridSize="10" guides="1" tooltips="1" connect="1" arrows="1" fold="1" page="1" pageScale="1" pageWidth="827" pageHeight="1169" math="0" shadow="0">
            <root>
                <mxCell id="0"/>
                <mxCell id="1" parent="0"/>
                <mxCell id="2" value="" style="rounded=0;whiteSpace=wrap;html=1;fillColor=none;" parent="1" vertex="1">
                    <mxGeometry x="40" y="80" width="160" height="280" as="geometry"/>
                </mxCell>
                <mxCell id="20" value="" style="group;fontStyle=4" parent="1" vertex="1" connectable="0">
                    <mxGeometry x="270" y="70" width="170" height="280" as="geometry"/>
                </mxCell>
                <mxCell id="21" value="" style="rounded=0;whiteSpace=wrap;html=1;" parent="20" vertex="1">
                    <mxGeometry x="10" y="10" width="160" height="80" as="geometry"/>
                </mxCell>
                <mxCell id="22" value="Roles" style="rounded=0;whiteSpace=wrap;html=1;strokeColor=#FFFFFF;" parent="20" vertex="1">
                    <mxGeometry x="10" y="10" width="160" height="40" as="geometry"/>
                </mxCell>
                <mxCell id="23" value="_id" style="rounded=0;whiteSpace=wrap;html=1;strokeColor=#FFFFFF;align=left;" parent="20" vertex="1">
                    <mxGeometry x="10" y="50" width="160" height="20" as="geometry"/>
                </mxCell>
                <mxCell id="24" value="title" style="text;html=1;strokeColor=none;fillColor=none;align=left;verticalAlign=middle;whiteSpace=wrap;rounded=0;" parent="20" vertex="1">
                    <mxGeometry x="10" y="70" width="60" height="20" as="geometry"/>
                </mxCell>
                <mxCell id="32" value="" style="edgeStyle=orthogonalEdgeStyle;rounded=0;orthogonalLoop=1;jettySize=auto;html=1;entryX=0;entryY=0.5;entryDx=0;entryDy=0;" parent="1" source="2" target="23" edge="1">
                    <mxGeometry relative="1" as="geometry">
                        <mxPoint x="240" y="130" as="targetPoint"/>
                        <Array as="points">
                            <mxPoint x="240" y="190"/>
                            <mxPoint x="240" y="130"/>
                        </Array>
                    </mxGeometry>
                </mxCell>
                <mxCell id="66" value="" style="edgeStyle=orthogonalEdgeStyle;rounded=0;orthogonalLoop=1;jettySize=auto;html=1;entryX=0;entryY=0.5;entryDx=0;entryDy=0;" parent="1" target="11" edge="1">
                    <mxGeometry relative="1" as="geometry">
                        <mxPoint x="520" y="160.0588235294117" as="sourcePoint"/>
                        <mxPoint x="440" y="170" as="targetPoint"/>
                        <Array as="points">
                            <mxPoint x="480" y="160"/>
                            <mxPoint x="480" y="40"/>
                            <mxPoint x="20" y="40"/>
                            <mxPoint x="20" y="130"/>
                        </Array>
                    </mxGeometry>
                </mxCell>
                <mxCell id="67" value="" style="group" connectable="0" vertex="1" parent="1">
                    <mxGeometry x="520" y="80" width="400" height="160" as="geometry"/>
                </mxCell>
                <mxCell id="64" value="" style="group" connectable="0" vertex="1" parent="67">
                    <mxGeometry width="400" height="160" as="geometry"/>
                </mxCell>
                <mxCell id="69" value="" style="edgeStyle=orthogonalEdgeStyle;rounded=0;orthogonalLoop=1;jettySize=auto;html=1;exitX=1.001;exitY=0.93;exitDx=0;exitDy=0;exitPerimeter=0;" parent="64" source="33" target="68" edge="1">
                    <mxGeometry relative="1" as="geometry">
                        <Array as="points">
                            <mxPoint x="200" y="93"/>
                            <mxPoint x="200" y="50"/>
                        </Array>
                    </mxGeometry>
                </mxCell>
                <mxCell id="33" value="" style="rounded=0;whiteSpace=wrap;html=1;" parent="64" vertex="1">
                    <mxGeometry width="160" height="120" as="geometry"/>
                </mxCell>
                <mxCell id="68" value="" style="rounded=0;whiteSpace=wrap;html=1;" parent="64" vertex="1">
                    <mxGeometry x="240" width="160" height="130" as="geometry"/>
                </mxCell>
                <mxCell id="40" value="_id" style="rounded=0;whiteSpace=wrap;html=1;strokeColor=#FFFFFF;align=left;" parent="64" vertex="1">
                    <mxGeometry y="40" width="160" height="20" as="geometry"/>
                </mxCell>
                <mxCell id="41" value="Conversations" style="rounded=0;whiteSpace=wrap;html=1;strokeColor=#FFFFFF;" parent="64" vertex="1">
                    <mxGeometry width="160" height="40" as="geometry"/>
                </mxCell>
                <mxCell id="42" value="users" style="text;html=1;strokeColor=none;fillColor=none;align=left;verticalAlign=middle;whiteSpace=wrap;rounded=0;" parent="64" vertex="1">
                    <mxGeometry y="60" width="60" height="20" as="geometry"/>
                </mxCell>
                <mxCell id="44" value="lastMessage" style="text;html=1;strokeColor=none;fillColor=none;align=left;verticalAlign=middle;whiteSpace=wrap;rounded=0;" parent="64" vertex="1">
                    <mxGeometry y="80" width="60" height="20" as="geometry"/>
                </mxCell>
                <mxCell id="70" value="_id" style="rounded=0;whiteSpace=wrap;html=1;strokeColor=#FFFFFF;align=left;" parent="64" vertex="1">
                    <mxGeometry x="240" y="40" width="160" height="20" as="geometry"/>
                </mxCell>
                <mxCell id="71" value="Messages" style="rounded=0;whiteSpace=wrap;html=1;strokeColor=#FFFFFF;" parent="64" vertex="1">
                    <mxGeometry x="240" width="160" height="40" as="geometry"/>
                </mxCell>
                <mxCell id="87" value="" style="edgeStyle=orthogonalEdgeStyle;rounded=0;orthogonalLoop=1;jettySize=auto;html=1;exitX=1;exitY=0.588;exitDx=0;exitDy=0;exitPerimeter=0;" parent="64" source="68" target="33" edge="1">
                    <mxGeometry relative="1" as="geometry">
                        <mxPoint x="440" y="-20" as="sourcePoint"/>
                        <Array as="points">
                            <mxPoint x="400" y="70"/>
                            <mxPoint x="440" y="70"/>
                            <mxPoint x="440" y="-20"/>
                            <mxPoint x="-20" y="-20"/>
                            <mxPoint x="-20" y="50"/>
                        </Array>
                    </mxGeometry>
                </mxCell>
                <mxCell id="72" value="conversation" style="text;html=1;strokeColor=none;fillColor=none;align=left;verticalAlign=middle;whiteSpace=wrap;rounded=0;" parent="64" vertex="1">
                    <mxGeometry x="240" y="60" width="80" height="20" as="geometry"/>
                </mxCell>
                <mxCell id="86" value="body" style="text;html=1;strokeColor=none;fillColor=none;align=left;verticalAlign=middle;whiteSpace=wrap;rounded=0;" parent="64" vertex="1">
                    <mxGeometry x="240" y="80" width="80" height="20" as="geometry"/>
                </mxCell>
                <mxCell id="91" value="sender" style="text;html=1;strokeColor=none;fillColor=none;align=left;verticalAlign=middle;whiteSpace=wrap;rounded=0;" parent="64" vertex="1">
                    <mxGeometry x="240" y="100" width="80" height="20" as="geometry"/>
                </mxCell>
                <mxCell id="92" value="title" style="text;html=1;strokeColor=none;fillColor=none;align=left;verticalAlign=middle;whiteSpace=wrap;rounded=0;" parent="64" vertex="1">
                    <mxGeometry y="100" width="60" height="20" as="geometry"/>
                </mxCell>
                <mxCell id="11" value="_id" style="rounded=0;whiteSpace=wrap;html=1;strokeColor=#FFFFFF;align=left;" parent="1" vertex="1">
                    <mxGeometry x="40" y="120" width="160" height="20" as="geometry"/>
                </mxCell>
                <mxCell id="12" value="firstName" style="text;html=1;strokeColor=none;fillColor=none;align=left;verticalAlign=middle;whiteSpace=wrap;rounded=0;" parent="1" vertex="1">
                    <mxGeometry x="40" y="140" width="60" height="20" as="geometry"/>
                </mxCell>
                <mxCell id="13" value="lastName" style="text;html=1;strokeColor=none;fillColor=none;align=left;verticalAlign=middle;whiteSpace=wrap;rounded=0;" parent="1" vertex="1">
                    <mxGeometry x="40" y="160" width="60" height="20" as="geometry"/>
                </mxCell>
                <mxCell id="14" value="role" style="text;html=1;strokeColor=none;fillColor=none;align=left;verticalAlign=middle;whiteSpace=wrap;rounded=0;" parent="1" vertex="1">
                    <mxGeometry x="40" y="180" width="60" height="20" as="geometry"/>
                </mxCell>
                <mxCell id="15" value="isAmbulatory" style="text;html=1;strokeColor=none;fillColor=none;align=left;verticalAlign=middle;whiteSpace=wrap;rounded=0;" parent="1" vertex="1">
                    <mxGeometry x="40" y="200" width="70" height="20" as="geometry"/>
                </mxCell>
                <mxCell id="16" value="email" style="text;html=1;strokeColor=none;fillColor=none;align=left;verticalAlign=middle;whiteSpace=wrap;rounded=0;" parent="1" vertex="1">
                    <mxGeometry x="40" y="220" width="70" height="20" as="geometry"/>
                </mxCell>
                <mxCell id="17" value="dateOfBirth" style="text;html=1;strokeColor=none;fillColor=none;align=left;verticalAlign=middle;whiteSpace=wrap;rounded=0;" parent="1" vertex="1">
                    <mxGeometry x="40" y="240" width="70" height="20" as="geometry"/>
                </mxCell>
                <mxCell id="18" value="password" style="text;html=1;strokeColor=none;fillColor=none;align=left;verticalAlign=middle;whiteSpace=wrap;rounded=0;" parent="1" vertex="1">
                    <mxGeometry x="40" y="260" width="70" height="20" as="geometry"/>
                </mxCell>
                <mxCell id="45" value="image" style="text;html=1;strokeColor=none;fillColor=none;align=left;verticalAlign=middle;whiteSpace=wrap;rounded=0;" parent="1" vertex="1">
                    <mxGeometry x="40" y="280" width="60" height="20" as="geometry"/>
                </mxCell>
                <mxCell id="106" value="call.status" style="text;html=1;strokeColor=none;fillColor=none;align=left;verticalAlign=middle;whiteSpace=wrap;rounded=0;" vertex="1" parent="1">
                    <mxGeometry x="40" y="300" width="70" height="20" as="geometry"/>
                </mxCell>
                <mxCell id="9" value="Users" style="rounded=0;whiteSpace=wrap;html=1;strokeColor=#FFFFFF;" parent="1" vertex="1">
                    <mxGeometry x="40" y="80" width="160" height="40" as="geometry"/>
                </mxCell>
                <mxCell id="107" value="call.with" style="text;html=1;strokeColor=none;fillColor=none;align=left;verticalAlign=middle;whiteSpace=wrap;rounded=0;" vertex="1" parent="1">
                    <mxGeometry x="40" y="320" width="60" height="20" as="geometry"/>
                </mxCell>
                <mxCell id="111" value="room" style="text;html=1;strokeColor=none;fillColor=none;align=left;verticalAlign=middle;whiteSpace=wrap;rounded=0;" vertex="1" parent="1">
                    <mxGeometry x="40" y="340" width="60" height="20" as="geometry"/>
                </mxCell>
            </root>
        </mxGraphModel>
    </diagram>
</mxfile>